<svg version="1.1" id="Layer_1" xmlns="http://www.w3.org/2000/svg" xmlns:xlink="http://www.w3.org/1999/xlink" x="0px" y="0px"
	 width="100%" viewBox="0 0 512 512" enable-background="new 0 0 512 512" xml:space="preserve">
<path fill="#000000" opacity="1.000000" stroke="none" 
	d="
M1.000000,195.000000 
	C1.000000,130.000000 1.000000,65.500000 1.000000,1.000000 
	C171.666672,1.000000 342.333344,1.000000 513.000000,1.000000 
	C513.000000,171.666672 513.000000,342.333344 513.000000,513.000000 
	C342.333344,513.000000 171.666672,513.000000 1.000000,513.000000 
	C1.000000,407.166656 1.000000,301.333344 1.000000,195.000000 
M306.840057,171.979233 
	C314.247772,170.688278 321.655518,169.397324 329.927277,168.016266 
	C337.964630,166.712250 346.001984,165.408249 354.906433,164.015884 
	C362.270416,162.954742 369.634369,161.893585 377.816559,160.957657 
	C386.921051,158.769379 396.018921,156.635986 404.012817,164.866806 
	C405.008057,168.205154 406.841492,171.537048 406.867249,174.882858 
	C407.093719,204.321182 406.998383,233.761993 406.998322,263.202057 
	C406.998322,266.622681 406.998322,270.043304 406.998322,273.525024 
	C404.419464,273.024597 402.208923,272.595673 399.149078,272.022522 
	C389.733429,271.709839 380.318695,271.250031 370.901428,271.190063 
	C368.604614,271.175415 366.299438,272.473236 363.211273,273.026825 
	C351.335693,276.029694 340.335754,280.813232 330.326324,289.169281 
	C322.222748,294.997498 316.490234,302.860504 311.273895,311.199829 
	C298.435760,331.724030 295.993622,353.885132 301.562866,376.988068 
	C305.859619,394.812134 315.817657,409.326843 330.194427,421.668365 
	C340.172272,428.999115 350.828003,434.954163 363.830017,437.980988 
	C366.669281,438.562531 369.525574,439.708221 372.344666,439.622955 
	C381.938690,439.332794 391.519562,438.608459 401.930695,438.008636 
	C414.813263,435.954651 426.031158,430.328156 436.671387,421.833374 
	C438.210602,420.626434 439.850494,419.527161 441.273804,418.196289 
	C459.853027,400.823486 468.849396,379.091370 468.912018,353.962189 
	C469.134644,264.641602 468.996246,175.320145 469.002411,85.999016 
	C469.003143,75.193344 467.027588,64.890060 461.188507,55.610546 
	C455.172638,46.050091 447.274292,38.826828 435.647583,35.218624 
	C429.680756,34.479084 423.729767,33.382462 417.741913,33.116405 
	C413.198792,32.914543 408.608704,33.770359 403.242371,34.263115 
	C400.407166,34.842918 397.573914,35.432648 394.736328,36.000530 
	C388.122223,37.324211 381.506012,38.637383 374.029388,39.995510 
	C367.019287,41.052189 360.009186,42.108871 352.184601,43.036480 
	C344.789642,44.412910 337.394714,45.789341 329.183563,47.044693 
	C327.793701,47.363457 326.411377,47.720474 325.012726,47.994469 
	C318.330353,49.303539 311.643555,50.590092 304.092834,51.986309 
	C296.383057,53.280849 288.673248,54.575390 280.102539,55.984314 
	C272.067627,57.378357 264.032715,58.772404 255.157440,60.023182 
	C251.165604,60.683174 247.161377,61.276615 243.184708,62.018009 
	C236.410095,63.281044 229.652786,64.637062 222.030762,65.996567 
	C212.674179,67.624931 203.317581,69.253288 193.132965,70.986992 
	C183.756851,72.275291 175.516861,75.871872 168.251221,82.996643 
	C167.569794,83.414337 166.750931,83.704445 166.227280,84.268593 
	C156.186005,95.086563 152.079239,108.230644 152.050919,122.640137 
	C151.929153,184.586746 151.998917,246.533737 151.998901,308.480591 
	C151.998901,310.250549 151.998901,312.020508 151.998901,313.627441 
	C148.006393,313.097168 144.501678,312.631683 140.124237,312.022552 
	C138.502838,311.897888 136.859573,311.900787 135.263687,311.627289 
	C126.599335,310.142365 118.280647,311.940186 109.210190,314.022308 
	C100.459511,317.976593 91.708839,321.930847 82.317825,326.166534 
	C79.829475,327.994446 77.138657,329.603027 74.884354,331.684418 
	C54.176315,350.804016 43.762524,374.026581 45.885262,402.648743 
	C47.058308,418.465668 51.826546,432.707916 61.037037,445.545685 
	C67.273155,454.237793 74.239944,462.133392 84.234253,467.757202 
	C92.120987,471.183380 100.007721,474.609558 108.077072,478.529297 
	C108.380157,478.625397 108.683243,478.721497 109.489998,478.957520 
	C109.659279,478.916229 109.828560,478.874908 110.822212,478.983856 
	C120.880646,479.600586 130.939087,480.217316 141.802063,480.966217 
	C142.868973,480.646240 143.946884,480.358734 145.000992,480.001099 
	C153.002472,477.286194 160.999283,474.557526 169.717468,471.972839 
	C171.379608,470.995728 173.082062,470.080658 174.697037,469.030975 
	C182.352707,464.055084 190.182251,459.266846 195.674698,450.838867 
	C207.322998,437.357574 214.653809,421.626709 214.791534,403.954742 
	C215.308289,337.644592 215.004684,271.328003 214.990768,205.013824 
	C214.989029,196.661026 217.672501,189.716949 225.872498,185.015152 
	C236.247543,183.287933 246.622604,181.560715 257.821136,179.958511 
	C265.546814,178.583466 273.272461,177.208420 281.839233,175.979553 
	C289.892456,174.597412 297.945648,173.215256 306.840057,171.979233 
z"/>
<path fill="#FD4785" opacity="1.000000" stroke="none" 
	d="
M404.039520,34.155533 
	C408.608704,33.770359 413.198792,32.914543 417.741913,33.116405 
	C423.729767,33.382462 429.680756,34.479084 435.808838,35.979073 
	C435.646759,39.870026 435.041809,43.000420 435.040588,46.131046 
	C434.992798,168.500748 434.992645,290.870453 435.043579,413.240143 
	C435.044830,416.198120 435.695435,419.155792 436.043152,422.113617 
	C426.031158,430.328156 414.813263,435.954651 401.264954,437.736176 
	C400.066193,434.565430 399.075165,431.668182 399.068756,428.768738 
	C398.970337,384.188263 398.953491,339.607391 399.044830,295.026886 
	C399.060455,287.406219 399.665588,279.786743 399.998383,272.166718 
	C402.208923,272.595673 404.419464,273.024597 406.998322,273.525024 
	C406.998322,270.043304 406.998322,266.622681 406.998322,263.202057 
	C406.998383,233.761993 407.093719,204.321182 406.867249,174.882858 
	C406.841492,171.537048 405.008057,168.205154 404.070496,164.072556 
	C404.418365,160.648499 404.957123,158.019089 404.961182,155.388840 
	C405.016937,119.439751 405.032043,83.490471 404.956421,47.541451 
	C404.947052,43.078854 404.359253,38.617474 404.039520,34.155533 
z"/>
<path fill="#FD3E84" opacity="1.000000" stroke="none" 
	d="
M436.357269,421.973511 
	C435.695435,419.155792 435.044830,416.198120 435.043579,413.240143 
	C434.992645,290.870453 434.992798,168.500748 435.040588,46.131046 
	C435.041809,43.000420 435.646759,39.870026 436.006439,36.312111 
	C447.274292,38.826828 455.172638,46.050091 461.188507,55.610546 
	C467.027588,64.890060 469.003143,75.193344 469.002411,85.999016 
	C468.996246,175.320145 469.134644,264.641602 468.912018,353.962189 
	C468.849396,379.091370 459.853027,400.823486 441.273804,418.196289 
	C439.850494,419.527161 438.210602,420.626434 436.357269,421.973511 
z"/>
<path fill="#FE838A" opacity="1.000000" stroke="none" 
	d="
M195.043335,451.114166 
	C190.182251,459.266846 182.352707,464.055084 174.697037,469.030975 
	C173.082062,470.080658 171.379608,470.995728 169.358093,471.444946 
	C168.985397,341.573181 168.972046,212.229309 168.958694,82.885445 
	C175.516861,75.871872 183.756851,72.275291 193.555634,71.410454 
	C193.985550,194.967239 193.984680,318.100555 194.043671,441.233856 
	C194.045242,444.527466 194.695557,447.820740 195.043335,451.114166 
z"/>
<path fill="#FE7D8A" opacity="1.000000" stroke="none" 
	d="
M195.359009,450.976501 
	C194.695557,447.820740 194.045242,444.527466 194.043671,441.233856 
	C193.984680,318.100555 193.985550,194.967239 193.969666,71.357780 
	C203.317581,69.253288 212.674179,67.624931 222.783539,66.204964 
	C224.024170,68.597214 224.931549,70.779930 224.937454,72.965088 
	C225.038773,110.347824 225.028580,147.730865 225.042923,185.113846 
	C217.672501,189.716949 214.989029,196.661026 214.990768,205.013824 
	C215.004684,271.328003 215.308289,337.644592 214.791534,403.954742 
	C214.653809,421.626709 207.322998,437.357574 195.359009,450.976501 
z"/>
<path fill="#FE8A8B" opacity="1.000000" stroke="none" 
	d="
M168.604950,82.941040 
	C168.972046,212.229309 168.985397,341.573181 168.998138,471.375122 
	C160.999283,474.557526 153.002472,477.286194 145.000992,480.001099 
	C143.946884,480.358734 142.868973,480.646240 141.400391,480.442017 
	C140.998138,424.000610 140.997559,368.083405 140.996979,312.166199 
	C144.501678,312.631683 148.006393,313.097168 151.998901,313.627441 
	C151.998901,312.020508 151.998901,310.250549 151.998901,308.480591 
	C151.998917,246.533737 151.929153,184.586746 152.050919,122.640137 
	C152.079239,108.230644 156.186005,95.086563 166.227280,84.268593 
	C166.750931,83.704445 167.569794,83.414337 168.604950,82.941040 
z"/>
<path fill="#FD5186" opacity="1.000000" stroke="none" 
	d="
M399.573730,272.094604 
	C399.665588,279.786743 399.060455,287.406219 399.044830,295.026886 
	C398.953491,339.607391 398.970337,384.188263 399.068756,428.768738 
	C399.075165,431.668182 400.066193,434.565430 400.852356,437.756805 
	C391.519562,438.608459 381.938690,439.332794 372.344666,439.622955 
	C369.525574,439.708221 366.669281,438.562531 363.414856,437.448944 
	C362.999786,386.463348 362.976654,336.009796 363.043182,285.556335 
	C363.048645,281.426331 363.665375,277.297150 363.998108,273.167572 
	C366.299438,272.473236 368.604614,271.175415 370.901428,271.190063 
	C380.318695,271.250031 389.733429,271.709839 399.573730,272.094604 
z"/>
<path fill="#FF928B" opacity="1.000000" stroke="none" 
	d="
M140.560608,312.094360 
	C140.997559,368.083405 140.998138,424.000610 140.998108,480.375946 
	C130.939087,480.217316 120.880646,479.600586 110.410553,478.450623 
	C109.998680,423.333649 109.998466,368.749908 109.998253,314.166138 
	C118.280647,311.940186 126.599335,310.142365 135.263687,311.627289 
	C136.859573,311.900787 138.502838,311.897888 140.560608,312.094360 
z"/>
<path fill="#FE5987" opacity="1.000000" stroke="none" 
	d="
M363.604675,273.097198 
	C363.665375,277.297150 363.048645,281.426331 363.043182,285.556335 
	C362.976654,336.009796 362.999786,386.463348 362.999603,437.374908 
	C350.828003,434.954163 340.172272,428.999115 330.404053,421.197632 
	C331.075684,418.886383 331.937378,417.046661 331.940918,415.205261 
	C332.018036,375.212250 332.015442,335.219025 331.954956,295.225952 
	C331.951752,293.113037 331.302887,291.001129 330.954590,288.888733 
	C340.335754,280.813232 351.335693,276.029694 363.604675,273.097198 
z"/>
<path fill="#FF998C" opacity="1.000000" stroke="none" 
	d="
M109.604218,314.094238 
	C109.998466,368.749908 109.998680,423.333649 109.998360,478.375519 
	C109.828560,478.874908 109.659279,478.916229 109.078262,478.727844 
	C108.436035,478.299225 108.178680,478.145050 107.894455,478.035706 
	C100.007721,474.609558 92.120987,471.183380 84.097855,467.002319 
	C83.640976,460.779602 83.054474,455.312378 83.042366,449.843872 
	C82.950851,408.524445 82.972107,367.204712 82.958160,325.885101 
	C91.708839,321.930847 100.459511,317.976593 109.604218,314.094238 
z"/>
<path fill="#FFA08C" opacity="1.000000" stroke="none" 
	d="
M82.637993,326.025818 
	C82.972107,367.204712 82.950851,408.524445 83.042366,449.843872 
	C83.054474,455.312378 83.640976,460.779602 83.960007,466.681335 
	C74.239944,462.133392 67.273155,454.237793 61.037037,445.545685 
	C51.826546,432.707916 47.058308,418.465668 45.885262,402.648743 
	C43.762524,374.026581 54.176315,350.804016 74.884354,331.684418 
	C77.138657,329.603027 79.829475,327.994446 82.637993,326.025818 
z"/>
<path fill="#FE7489" opacity="1.000000" stroke="none" 
	d="
M225.457703,185.064499 
	C225.028580,147.730865 225.038773,110.347824 224.937454,72.965088 
	C224.931549,70.779930 224.024170,68.597214 223.212250,66.183685 
	C229.652786,64.637062 236.410095,63.281044 243.184708,62.018009 
	C247.161377,61.276615 251.165604,60.683174 255.578156,60.552887 
	C255.999237,97.874664 255.978043,134.666794 256.043091,171.458740 
	C256.048035,174.250885 256.665131,177.041931 256.997650,179.833496 
	C246.622604,181.560715 236.247543,183.287933 225.457703,185.064499 
z"/>
<path fill="#FD5186" opacity="1.000000" stroke="none" 
	d="
M403.640930,34.209320 
	C404.359253,38.617474 404.947052,43.078854 404.956421,47.541451 
	C405.032043,83.490471 405.016937,119.439751 404.961182,155.388840 
	C404.957123,158.019089 404.418365,160.648499 404.042786,163.695053 
	C396.018921,156.635986 386.921051,158.769379 377.407715,160.437073 
	C376.999115,122.170326 377.035278,84.424034 376.909302,46.678295 
	C376.901825,44.434906 375.593597,42.195862 374.890656,39.954803 
	C381.506012,38.637383 388.122223,37.324211 394.736328,36.000530 
	C397.573914,35.432648 400.407166,34.842918 403.640930,34.209320 
z"/>
<path fill="#FE6087" opacity="1.000000" stroke="none" 
	d="
M330.640442,289.028992 
	C331.302887,291.001129 331.951752,293.113037 331.954956,295.225952 
	C332.015442,335.219025 332.018036,375.212250 331.940918,415.205261 
	C331.937378,417.046661 331.075684,418.886383 330.247009,420.883423 
	C315.817657,409.326843 305.859619,394.812134 301.562866,376.988068 
	C295.993622,353.885132 298.435760,331.724030 311.273895,311.199829 
	C316.490234,302.860504 322.222748,294.997498 330.640442,289.028992 
z"/>
<path fill="#FE6D88" opacity="1.000000" stroke="none" 
	d="
M257.409393,179.895996 
	C256.665131,177.041931 256.048035,174.250885 256.043091,171.458740 
	C255.978043,134.666794 255.999237,97.874664 255.998322,60.624519 
	C264.032715,58.772404 272.067627,57.378357 280.540710,56.404327 
	C280.985321,96.494019 280.991730,136.163696 280.998138,175.833374 
	C273.272461,177.208420 265.546814,178.583466 257.409393,179.895996 
z"/>
<path fill="#FD5486" opacity="1.000000" stroke="none" 
	d="
M374.460022,39.975155 
	C375.593597,42.195862 376.901825,44.434906 376.909302,46.678295 
	C377.035278,84.424034 376.999115,122.170326 376.998627,160.374466 
	C369.634369,161.893585 362.270416,162.954742 354.309204,163.668747 
	C353.474670,161.024536 353.033173,158.727692 353.030548,156.430359 
	C352.987305,118.675461 352.999420,80.920494 352.999084,43.165550 
	C360.009186,42.108871 367.019287,41.052189 374.460022,39.975155 
z"/>
<path fill="#FE5987" opacity="1.000000" stroke="none" 
	d="
M352.591858,43.101013 
	C352.999420,80.920494 352.987305,118.675461 353.030548,156.430359 
	C353.033173,158.727692 353.474670,161.024536 353.875641,163.712921 
	C346.001984,165.408249 337.964630,166.712250 329.479614,167.587128 
	C329.021698,129.447632 328.993988,91.737221 329.043945,54.026924 
	C329.046967,51.739456 329.666901,49.452805 329.999756,47.165771 
	C337.394714,45.789341 344.789642,44.412910 352.591858,43.101013 
z"/>
<path fill="#FE6087" opacity="1.000000" stroke="none" 
	d="
M329.591675,47.105232 
	C329.666901,49.452805 329.046967,51.739456 329.043945,54.026924 
	C328.993988,91.737221 329.021698,129.447632 329.047607,167.632172 
	C321.655518,169.397324 314.247772,170.688278 306.410583,171.490082 
	C305.654083,166.377319 305.055450,161.754440 305.043213,157.130005 
	C304.950317,122.048393 304.972229,86.966469 304.958344,51.884644 
	C311.643555,50.590092 318.330353,49.303539 325.012726,47.994469 
	C326.411377,47.720474 327.793701,47.363457 329.591675,47.105232 
z"/>
<path fill="#FE6788" opacity="1.000000" stroke="none" 
	d="
M304.525574,51.935478 
	C304.972229,86.966469 304.950317,122.048393 305.043213,157.130005 
	C305.055450,161.754440 305.654083,166.377319 305.989990,171.417007 
	C297.945648,173.215256 289.892456,174.597412 281.418701,175.906464 
	C280.991730,136.163696 280.985321,96.494019 280.971191,56.347130 
	C288.673248,54.575390 296.383057,53.280849 304.525574,51.935478 
z"/>
<path fill="#FF928B" opacity="1.000000" stroke="none" 
	d="
M107.985764,478.282501 
	C108.178680,478.145050 108.436035,478.299225 108.826431,478.657898 
	C108.683243,478.721497 108.380157,478.625397 107.985764,478.282501 
z"/>
</svg>